<?xml version="1.0" encoding="UTF-8"?>
<svg id="Layer_2" data-name="Layer 2" xmlns="http://www.w3.org/2000/svg" viewBox="0 0 1787.72 550.32">
  <defs>
    <style>
      .cls-1 {
        fill: #fff;
      }

      .cls-2 {
        fill: #0049ff;
      }
    </style>
  </defs>
  <g id="Logo">
    <g>
      <g>
        <g>
          <path class="cls-1" d="m629.43,237.5l87.9-201h64.2l88.5,201h-51.6l-18.9-44.4h-100.5l-19.2,44.4h-50.4Zm87-84.9h65.7l-18.9-43.8-12.3-31.2h-3.3l-12.3,31.2-18.9,43.8Z"/>
          <path class="cls-1" d="m874.82,200.3c0-22.2,16.5-36,48.6-39.3l64.5-6.6v-5.7c0-19.5-8.7-24.9-32.7-24.9s-32.1,6-32.1,23.1v1.2h-45.3v-.9c0-37.2,31.2-63,80.7-63s73.8,25.8,73.8,65.1v88.2h-42v-34.5h-2.4c-6.9,23.4-27.9,37.5-61.2,37.5s-51.9-15-51.9-40.2Zm64.8,8.4c30.6,0,47.1-7.2,48.3-28.5l-52.2,6c-10.8.9-15.6,3.9-15.6,11.1,0,8.1,6.3,11.4,19.5,11.4Z"/>
          <path class="cls-1" d="m1049.72,162.5c0-48,25.5-78.3,70.2-78.3,35.7,0,54,17.7,59.1,42.9h2.7V36.5h45v201h-42v-41.7h-2.4c-5.7,29.7-25.5,44.7-60,44.7-46.8,0-72.6-30.6-72.6-78Zm87.9,36.9c28.5,0,44.1-9.9,44.1-36v-2.4c0-26.1-15.3-35.7-44.1-35.7s-42.3,9.6-42.3,37.2,13.5,36.9,42.3,36.9Z"/>
          <path class="cls-1" d="m1250.41,237.5V36.5h45v96.6h2.4c4.8-25.5,22.5-48.9,60.9-48.9,40.5,0,60.3,26.4,60.3,61.2v92.1h-45v-78.6c0-25.2-10.8-34.2-39-34.2-30.3,0-39.6,12.3-39.6,37.5v75.3h-45Z"/>
          <path class="cls-1" d="m1446.01,288.5v-40.8h36.9c11.1,0,15.9-3,18.9-9.6l-73.5-150.9h51l31.8,68.7,12.6,35.4h3l12-35.7,28.5-68.4h50.1l-74.4,161.1c-14.4,31.5-34.5,40.2-72.3,40.2h-24.6Z"/>
          <path class="cls-1" d="m1622.41,200.3c0-22.2,16.5-36,48.6-39.3l64.5-6.6v-5.7c0-19.5-8.7-24.9-32.7-24.9s-32.1,6-32.1,23.1v1.2h-45.3v-.9c0-37.2,31.2-63,80.7-63s73.8,25.8,73.8,65.1v88.2h-42v-34.5h-2.4c-6.9,23.4-27.9,37.5-61.2,37.5s-51.9-15-51.9-40.2Zm64.8,8.4c30.6,0,47.1-7.2,48.3-28.5l-52.2,6c-10.8.9-15.6,3.9-15.6,11.1,0,8.1,6.3,11.4,19.5,11.4Z"/>
        </g>
        <g>
          <path class="cls-1" d="m648.93,510.82v-201h21.3v201h-21.3Z"/>
          <path class="cls-1" d="m705.92,510.82v-148.2h19.2v46.5h1.5c5.1-25.2,26.1-49.5,63-49.5,41.7,0,62.4,29.7,62.4,64.8v86.4h-21.3v-83.4c0-30.6-14.7-48.3-48.6-48.3-36,0-54.9,21.9-54.9,60v71.7h-21.3Z"/>
          <path class="cls-1" d="m897.32,510.82v-129.9h-23.7v-18.3h24c2.4-35.1,26.1-52.8,64.5-52.8h16.2v16.8h-19.2c-27,0-41.7,9-40.5,36h59.7v18.3h-59.7v129.9h-21.3Z"/>
          <path class="cls-1" d="m991.52,436.72c0-45,32.1-77.1,80.4-77.1s80.7,32.1,80.7,77.1-32.1,77.1-80.7,77.1-80.4-32.1-80.4-77.1Zm140.1,0c0-35.7-18.9-57.9-59.7-57.9s-59.4,22.2-59.4,57.9,18.6,57.9,59.4,57.9,59.7-21.9,59.7-57.9Z"/>
          <path class="cls-1" d="m1239.62,510.82c-29.4,0-48.3-12.3-48.3-47.1v-82.8h-26.4v-18.3h26.4v-35.4h21.6v35.4h58.8v18.3h-58.8v84c0,20.7,10.2,26.4,31.8,26.4h27v19.5h-32.1Z"/>
          <path class="cls-1" d="m1287.62,436.72c0-45,30-77.1,77.7-77.1,43.5,0,74.4,25.2,74.4,69.3,0,5.4-.6,9.9-1.5,13.8h-130.5c1.2,33.3,18.3,53.4,57.6,53.4,34.8,0,51-12.9,51-34.5v-2.1h21.3v2.1c0,30.9-30.6,52.2-72,52.2-47.7,0-78-30-78-77.1Zm20.1-7.2h111.9v-4.5c0-31.2-19.8-47.7-54.6-47.7-38.4,0-55.8,19.8-57.3,52.2Z"/>
          <path class="cls-1" d="m1460.41,436.72c0-45,30.9-77.1,78.3-77.1,41.4,0,73.8,24.6,73.8,60.3v2.4h-21v-1.8c0-26.4-19.2-41.4-53.1-41.4-39.6,0-56.7,21.3-56.7,57.6s17.1,57.6,56.7,57.6c33.9,0,53.1-15,53.1-41.4v-1.8h21v2.4c0,35.7-32.4,60.3-73.8,60.3-47.4,0-78.3-32.1-78.3-77.1Z"/>
          <path class="cls-1" d="m1641.01,510.82v-201h21.3v98.1h1.5c4.8-24.9,24-48.3,61.8-48.3,41.4,0,62.1,27.6,62.1,65.1v86.1h-21.3v-83.4c0-33.9-15.9-48.3-49.2-48.3-39.6,0-54.9,25.2-54.9,62.1v69.6h-21.3Z"/>
        </g>
      </g>
      <g>
        <rect class="cls-1" width="550.32" height="550.32" rx="80" ry="80"/>
        <g>
          <g>
            <path class="cls-2" d="m175.75,212.75c-2.82,7.69-5.84,17.44-9.04,29.23-3.21,11.79-5.83,24.36-7.88,37.69-2.05,13.33-3.14,26.6-3.27,39.8-.13,13.21,1.35,25.19,4.42,35.96,3.08,10.77,8.2,19.49,15.38,26.15,7.18,6.67,17.05,10,29.61,10,5.9,0,11.15-.96,15.77-2.88,4.61-1.92,8.2-4.93,10.77-9.04l3.85,1.92c0,8.98-1.54,18.08-4.62,27.3-3.08,9.23-7.82,17.63-14.23,25.19-6.41,7.57-14.49,13.72-24.23,18.46-9.75,4.74-21.28,7.11-34.61,7.11-7.95,0-15.38-1.35-22.31-4.04s-12.88-6.73-17.88-12.11c-5-5.38-8.91-12.24-11.73-20.57-2.82-8.33-4.23-18.14-4.23-29.42,0-14.61,2.5-30.19,7.5-46.73,5-16.54,11.15-32.94,18.46-49.23,7.31-16.28,15.06-31.92,23.27-46.92,8.2-15,15.38-28.39,21.54-40.19l3.46,2.31Zm96.91,243.05l-93.84-269.21h81.53l94.22,269.21h-81.92Z"/>
            <path class="cls-2" d="m371.88,186.6h76.92v269.21h-76.92V186.6Z"/>
          </g>
          <circle class="cls-2" cx="410.34" cy="128.81" r="38.14"/>
          <circle class="cls-1" cx="410.34" cy="128.81" r="20.02"/>
        </g>
      </g>
    </g>
  </g>
</svg>